<?xml version="1.0" standalone="no"?>
<!DOCTYPE svg PUBLIC "-//W3C//DTD SVG 1.1//EN" "http://www.w3.org/Graphics/SVG/1.1/DTD/svg11.dtd" >
<svg xmlns="http://www.w3.org/2000/svg">
<metadata></metadata>
<defs>
<font id="standingonthestandingonthesun" horiz-adv-x="563" >
<font-face units-per-em="2048" ascent="2048" descent="0" />
<missing-glyph horiz-adv-x="614" />
<glyph horiz-adv-x="2048" />
<glyph horiz-adv-x="2048" />
<glyph unicode="&#xd;" horiz-adv-x="681" />
<glyph unicode=" "  horiz-adv-x="614" />
<glyph unicode="&#x09;" horiz-adv-x="614" />
<glyph unicode="&#xa0;" horiz-adv-x="614" />
<glyph unicode="!" horiz-adv-x="714" d="M71 1363.5q5 20.5 23 33.5q10 8 25 8q16 16 41 14q106 -12 246 4v4q0 20 15 36t36 16q18 0 32.5 -12.5t18.5 -30.5l4 2q20 2 37.5 -10.5t20.5 -33t-9 -38t-33 -21.5l-20 -2q0 -102 2 -268q4 -11 4 -23q-2 -98 10 -258q16 -215 19 -266q0 -27 -21 -43q-12 -35 -49 -35h-10 q-12 -20 -37 -26q-20 -2 -37.5 9t-21.5 34q-14 88 -54 225q-57 199 -63 231q-6 25 -19.5 90.5t-23.5 98.5l-14 37l-5 10q-12 27 -28.5 54.5t-43 64.5t-38.5 59q-12 16 -7 36.5zM127 365.5q0 21.5 14.5 37t36 15t35.5 -14.5q86 -82 185.5 -104.5t189.5 33.5q16 10 37.5 7 t33 -20.5t8.5 -39t-22 -33.5q-82 -55 -179 -55.5t-177 37.5t-146 102q-16 14 -16 35.5zM198 75.5q3 20.5 20.5 33t37.5 10.5q168 -29 236 -29q20 0 35.5 -15.5t15.5 -36t-15.5 -35.5t-35.5 -15q-76 0 -252 28q-20 4 -32.5 21.5t-9.5 38zM242 1313q4 -6 6 -15q10 6 22 9 q11 0 21 -2l-2 8q-25 -2 -47 0z" />
<glyph unicode="&#x22;" horiz-adv-x="544" d="M150 1241q-4 20 8 37.5t32.5 23t38 -7t23.5 -32.5q33 -172 61 -508q2 -20 -12 -37t-34.5 -19t-37 12.5t-18.5 34.5q-25 315 -61 496zM315 1227q-2 23 9.5 40t33 20t39 -8.5t21.5 -31.5q4 -27 41 -192q27 -121 39 -197q2 -23 -10.5 -39t-34 -19t-38 9t-20.5 33 q-10 72 -37 190q-35 156 -43 195z" />
<glyph unicode="#" horiz-adv-x="743" d="M157 440.5q-3 20.5 9 38t33 21.5q39 6 73 12q-6 66 -14 127q-2 20 10.5 36.5t34 19.5t37.5 -9t20 -35q8 -57 13 -121q55 13 104 27q-10 127 -31 227q-2 23 9.5 40.5t33 20.5t39 -8.5t21.5 -31.5q18 -100 29 -221q33 -4 43 -35q6 -20 -3.5 -38.5t-29.5 -27.5l2 -43l6 -110 q25 2 45.5 4t36.5 -12.5t18 -35t-12 -37t-35 -18.5l-47 -4q6 -82 12 -145q2 -20 -11 -36.5t-34.5 -18.5t-38 11t-18.5 36q-6 68 -10 143q-82 -10 -113 -12v-144q0 -20 -15.5 -35.5t-36 -15.5t-35.5 15.5t-15 35.5v134q-23 -2 -43.5 -2t-37 14t-16.5 34.5t14.5 37t35 16.5 t45.5 2q-2 59 -6 111q-31 -4 -64 -11q-20 -2 -37.5 10.5t-20.5 33zM381 428q4 -57 6 -121q29 2 109 12q-6 78 -9 115l-2 19q-49 -12 -104 -25z" />
<glyph unicode="$" horiz-adv-x="976" d="M315.5 394q-2.5 22 12 37t36 17.5t37.5 -12.5q6 -8 17 -18l12 -15q8 -8 12 -10q29 -10 90 -2q6 119 3 248q-125 80 -125 188q0 102 86 166q-8 41 -21 74q-6 20 3 38.5t29.5 26t39 -2t26.5 -29.5l19 -64q39 8 80 4l-4 70q-2 20 12 35.5t35.5 17.5t37 -12t17.5 -37l6 -106 q14 -10 27 -21q74 -61 125 -215q6 -20 -3.5 -38.5t-30 -26t-38.5 2t-27 29.5q-25 74 -45 111q6 -158 4 -283q16 -31 21 -63q6 -53 -27 -101l-8 -86q-2 -20 -18.5 -33.5t-38.5 -11.5q-18 2 -31.5 16.5t-13.5 35.5q-12 -6 -25 -11q-10 -4 -18 -6q-6 -59 -13 -106 q-4 -20 -21 -32.5t-37.5 -9.5t-33 20.5t-10.5 37.5q6 33 10 70q-74 -6 -118 12q-25 10 -50 35l-14 14q-6 8 -10 10q-14 14 -16.5 36zM512 827q0 -25 14 -45q-4 41 -8 78q-6 -14 -6 -33zM610 936q16 -106 25 -238q37 -20 51 -30q0 115 -8 268q-33 6 -68 0zM635 418 q29 12 47 28l4 91q-16 18 -49 41q2 -82 -2 -160z" />
<glyph unicode="%" horiz-adv-x="1320" d="M256 735q-23 129 53 215q70 76 160 68q72 -6 145 -66q78 -59 144 -159q55 51 137 100t154 72q129 43 188 -13q72 -66 6 -233q-47 -123 -211 -293l-61 -66l-66 -69q-25 -23 -54.5 -57.5t-51.5 -65.5q-25 -35 -64 -16q-20 6 -33 24q-111 172 -206 277q-18 18 -58 51l-71 59 q-94 86 -111 172zM434 819q4 -80 129 -233l111 -129q63 -72 84 -103q92 86 187 193.5t138 183.5q14 25 21 41l-33 -6h-8q-20 -6 -47 -16q-90 -37 -234 -119q-18 -10 -39 -4l-8 -4q-18 -8 -37.5 0t-27.5 28q-39 98 -84 137q-47 45 -117 56q-25 4 -31 0z" />
<glyph unicode="&#x26;" horiz-adv-x="980" d="M473 763q0 22 16 36q25 25 86.5 62.5t120.5 60.5q82 31 138 22q41 -4 67.5 -31.5t32.5 -72.5q12 -123 -109 -240q10 -8 17 -20q51 -76 -47 -179q-12 -12 -29 -24l-33 -25q-18 -12 -22 -14q-18 -12 -39 -9t-33 20.5t-9 38t19 32.5l31 20l25 17q8 6 16 14q35 37 35 53 q-4 4 -15 8q-55 -37 -108 -59q-31 -12 -53 -18q-14 -2 -25 -2q-31 0 -47 22q-33 43 -12 90q14 33 55 53q63 29 149 25q8 0 17 -2q125 98 114 186q0 10 -3 12.5t-9 4.5q-29 4 -86 -19q-51 -20 -103 -52t-71 -48q-14 -14 -35.5 -14t-36 15t-14.5 37zM588 199q-2 20 11 37.5 t33.5 19.5t38 -11.5t19.5 -33.5q2 -29 6 -47q2 -23 3 -26t1 -17v-19v-24v-47q0 -20 -15 -35.5t-35.5 -15.5t-36 15t-15.5 36v43v24v17q0 12 -1 15t-3 26q-4 18 -6 43zM638 1452q7 21 26.5 29t40 1t28.5 -28q16 -37 23.5 -86t8.5 -78.5t0 -89t-1 -70.5v-8v-4q2 -23 -12.5 -38 t-36 -17t-36.5 12.5t-17 34.5l-5 61q0 14 7 27q2 154 -25 215q-8 18 -1 39z" />
<glyph unicode="'" horiz-adv-x="317" d="M133 1397q-2 23 10.5 39t34 19t37.5 -9t21 -33q2 -12 8 -106q8 -15 8 -29q-2 -27 0 -53l10 -135l10 -134v-6v-6q0 -6 -4 -16q-6 -12 -14 -19q-25 -20 -51 -8q-10 2 -17.5 9.5t-9.5 11.5l-2 6l-4 12q0 4 -2 14q-2 20 -6 80q-12 152 -12 187q-14 162 -17 176z" />
<glyph unicode="(" horiz-adv-x="641" d="M211 279q-49 262 22 579l5 45q31 328 188 500q22 24 53 14l25 29q12 16 33.5 18t38 -11t18.5 -34.5t-12 -38.5q-170 -209 -248 -538q-8 -139 10 -459q2 -23 3 -65t3 -58q2 -70 10 -117q16 -106 31 -153q8 -10 12 -21q6 -12 5 -24q-2 -23 -19 -35q-23 -20 -51 -10 q-14 6 -25 18l-4 8q-8 6 -16 19q-4 6 -8 16q-6 16 -13 41q-12 39 -26 107z" />
<glyph unicode=")" horiz-adv-x="438" d="M38 1355.5q-3 20.5 9 38t33 20.5t39 -9q4 -4 10 -7t13.5 -7.5t11.5 -8.5q31 -18 47 -39q115 -135 164 -450q39 -254 24 -473q-10 -147 -65 -334l-39 -139q-2 -4 -2 -6q-4 -6 -7 -13q-2 -2 -6 -7t-18 -10t-29 -3q-12 4 -21 11t-14 13l-2 7q-2 6 -2 10q-2 2 -2 6 q-8 16 -8 45q-2 20 0 53q2 55 12 142q4 49 15 137l12 104q33 422 -125 860q0 4 -2 9q-20 12 -29 18q-16 12 -19 32.5z" />
<glyph unicode="*" horiz-adv-x="679" d="M10 1040q6 10 15 23q14 16 38 39q39 37 113 96l6 4q0 2 -4 17.5t-6 27.5q-14 74 29 109q45 39 114 8q23 -8 47 -25q10 8 17 15l8 8l16 22q16 18 35 27q37 16 70 -10q25 -18 18 -53q-2 -10 -6 -25q-6 -16 -22 -49l-19 -35l4 -4q10 -8 20.5 -19.5t16.5 -19.5l12 -10 q2 -2 7.5 -4t15.5 -6l23 -13q68 -37 53 -96q-6 -25 -31 -37q-6 -2 -16 -4q-10 -4 -29 -6l-74 -6q-104 -6 -121 -8q-63 -125 -81 -193q-8 -25 -33 -35l-2 -4q-4 -20 -21.5 -32.5t-38 -7.5t-33 22.5t-6.5 38.5q16 86 27 180q-41 -8 -66 -10q-20 -4 -32 -4h-15h-10 q-23 4 -35 24q-16 25 -4 55z" />
<glyph unicode="+" horiz-adv-x="829" d="M315 410.5q-2 21.5 12.5 37t37.5 17.5h12q12 6 26 6q10 -2 23 -2q23 2 106 12v8q-14 98 -26 156q-8 35 20 55q12 25 41 27q20 2 37 -11.5t19 -35.5q6 -72 12 -182v-9q47 4 88 5q18 0 32.5 -11.5t16.5 -29.5q10 -12 10 -29q0 -20 -15 -35.5t-36 -15.5q-33 0 -78 -2 q10 -70 29 -123q6 -20 -3 -39t-28 -25q0 -20 -13 -34.5t-32 -16.5q-23 -2 -39 11.5t-18 33.5q-8 80 -12 189q-61 -2 -109 0q-33 -2 -59 -5q-20 -2 -36 12.5t-18 36z" />
<glyph unicode="," horiz-adv-x="284" d="M31 -216.5q-6 19.5 4 39t28 25.5q68 20 74 119q2 31 -1 63.5t-10 85t-9 64.5q-2 20 11 38t33.5 20t38 -11.5t19.5 -33.5q2 -12 6 -48t7.5 -61t5.5 -59.5t2 -63.5q-10 -168 -144 -211q-20 -6 -39.5 4t-25.5 29.5z" />
<glyph unicode="-" d="M104 553q-2 27 19 43q-4 12 0 25q6 20 24.5 30t38.5 4q72 -20 236 -18h45q10 -2 16 -4q27 -8 33 -39q2 -16 -3 -29.5t-13 -17.5l-8 -6q-6 -4 -17 -6q-4 -2 -8 -3q-23 -4 -98 -10l-209 -16q-23 -2 -38.5 12t-17.5 35z" />
<glyph unicode="." horiz-adv-x="358" d="M53 84q1 23 17 37q-16 39 -15 82q4 55 41 99t97 50q74 6 104 -59q25 -47 8 -111q-14 -53 -53 -90q10 -20 4 -40.5t-25.5 -30t-40.5 -3.5q-23 8 -40 19q-23 -4 -46 -4q-20 0 -35.5 15t-15.5 36zM158 197q-2 -25 10 -43q29 20 39 55q6 25 0 39q-2 2 -6 2 q-14 -2 -27.5 -16.5t-15.5 -36.5z" />
<glyph unicode="/" horiz-adv-x="759" d="M45 -20q43 156 112.5 327.5t170.5 392.5l137 314l121 289v4q0 2 1 8t3 16q8 55 51 70q16 4 33 0q20 -6 31 -25q10 -14 8 -35q0 -16 -8 -38q-12 -39 -41 -103q-45 -96 -138 -319l-65 -164l-68 -180l-61 -160l-66 -182q-41 -117 -57 -166q-14 -37 -53 -35l-13 -43 q-6 -20 -24.5 -30.5t-39 -4.5t-30.5 25t-4 39z" />
<glyph unicode="0" horiz-adv-x="1214" d="M37 424q-14 121 19.5 245t107.5 214q22 26 47 49q27 27 53 47q10 16 31 22l18 7q82 41 191 36q20 0 41 -2q117 2 215 -36q109 -41 207 -142.5t151 -224.5q39 -86 48.5 -171t-20.5 -173t-106 -154l-6 -6q-55 -78 -143 -125q-123 -66 -291 -51q-129 12 -246.5 65.5 t-209 158t-107.5 241.5zM166 545q0 -121 51 -220.5t137 -154.5t187.5 -75.5t212 8t204.5 102.5q76 117 52 284q-16 123 -83 230.5t-161 161.5q-51 31 -123 47q-2 -8 -4 -13q-10 -20 -30 -27t-38 1q-166 76 -288 -31q-12 -12 -25 -27q-92 -115 -92 -286z" />
<glyph unicode="1" horiz-adv-x="1026" d="M351 1121.5q-3 21.5 8 39t34 21.5q18 2 142 49q55 20 86 31q51 14 77 10q55 -10 80 -66q8 -18 15 -63l10 -96q6 -80 16 -269q12 -221 21 -459q2 -31 0 -106q-2 -66 0 -96q2 -4 6 -15q4 -14 6 -26q51 8 73.5 8t38 -14.5t15.5 -36t-14.5 -36.5t-34.5 -15q-12 0 -158 -21 q-59 -8 -92 -10q-55 -4 -80 4q-14 6 -22 16q-16 18 -13 45q4 10 9.5 17.5t9.5 11.5l4 2q6 4 14 8q8 2 23 6q16 6 61 19l53 16q-2 8 -2 13q-2 39 0 108.5t0 97.5q-8 236 -20 457q-10 188 -17 264q-6 57 -10 92l-6 37q0 2 -4 4q-8 0 -31 -6q-27 -8 -78 -28q-131 -49 -161 -56 q-20 -2 -38 9.5t-21 33z" />
<glyph unicode="2" horiz-adv-x="993" d="M150 874q-8 102 98 234q92 113 225 201q143 92 258 102q70 6 123 -23.5t78 -99.5q53 -162 -66 -497q-68 -188 -200 -455q-113 -225 -134 -262h17q20 0 49 -1t45 -1h25q20 0 34.5 -16.5t14.5 -37t-16.5 -35t-36.5 -14.5h-21q-18 0 -47 1t-49 1q-45 0 -70 2h-26 q-6 2 -10.5 2t-8.5 2.5t-10 4.5q-14 8 -23 22q-18 41 17 80l12 12q31 55 147 285q127 256 195 444q106 303 64 430q-18 59 -95 54q-90 -8 -210.5 -86t-200.5 -181q-80 -98 -76 -159q2 -20 -12.5 -37t-35 -19t-36.5 12.5t-18 34.5z" />
<glyph unicode="3" horiz-adv-x="1161" d="M99.5 1099q3.5 22 21.5 34q90 61 336 186q133 70 229 98q84 25 166 31q117 10 182 -31q104 -63 76 -205q-20 -98 -109 -233q-27 -45 -60.5 -91t-68.5 -89l-59 -72l-55 -63q-31 -35 -35 -39l-119 -138l-47 -51l21 -10q39 -18 61 -31q39 -27 55 -55q86 -162 -30 -279 q-76 -78 -236 -118q-20 -6 -38.5 5t-24 31.5t6 39t31.5 22.5q131 35 189 92q63 63 12 158q-4 6 -20.5 17t-48.5 26q-45 20 -54 26q-16 8 -26 17q-20 18 -25 43q-4 18 10 37l2 2v2l2 2l7 4l18 22l57 66l119 135q4 6 35 41l53 64l58 69l65 84q33 43 59 86q78 119 95 199 q14 72 -29 98q-37 23 -123 17q-70 -6 -143 -29q-86 -27 -213 -90q-238 -123 -324 -182q-16 -10 -37.5 -7.5t-33 20t-8 39.5zM520 393h2v2z" />
<glyph unicode="4" horiz-adv-x="1067" d="M150 334q-6 41 28 76q6 4 10 8l5 4l4 4l2 2l102 141q35 47 142.5 180.5t170 222.5t111.5 187q2 20 18 33q25 31 62 14q18 -10 25 -28.5t-1 -36.5q10 -61 10.5 -139t-4 -132.5t-13.5 -141.5t-11 -124q-6 -72 -6 -153q92 -2 172 -15q20 -4 32.5 -21.5t9.5 -38t-20.5 -32.5 t-37.5 -10q-72 12 -158 14q0 -23 2 -51q0 -20 2 -136t2 -175q0 -20 -15.5 -36t-36 -16t-35.5 15.5t-15 36.5q0 59 -2.5 173.5t-2.5 137.5q-2 27 -2 51q-82 -4 -208 -18q-18 -2 -68 -13q-82 -16 -94 -20q-57 -10 -88 -12q-25 -2 -39 2q-45 8 -53 47zM303 397l6 2q14 2 92 19 q55 12 78 14q127 15 223 19q0 88 7 161q2 14 15 153.5t13 209.5q-47 -74 -106 -152l-135 -172l-113 -143z" />
<glyph unicode="5" horiz-adv-x="1265" d="M349 106.5q-5 20.5 6.5 39t31.5 22.5q166 41 252 108q109 84 86 209q-16 92 -70 144q-18 16 -100 37q-53 14 -61 16q-18 6 -29 12q-27 14 -35 39q-6 25 2 66q6 23 19 59q29 86 28 90q4 33 -4 162q-4 63 -4 90q-2 53 8 78q16 43 68 61q35 12 88 13q80 0 211 -29 q188 -41 340 -100q20 -6 28.5 -25.5t1 -40t-27 -29t-39.5 -0.5q-143 55 -326 97q-111 25 -180 24q0 -35 -3 -67.5t-9 -72.5t-10.5 -63.5t-16.5 -70.5t-16 -60.5t-19.5 -68.5t-17.5 -61.5t-4 -10.5l35 -8q106 -29 143 -64q80 -74 102 -200q31 -184 -125 -305 q-104 -82 -290 -127q-20 -6 -39 5t-24 31.5z" />
<glyph unicode="6" horiz-adv-x="1191" d="M317 182q-35 119 7 305l20 80q20 133 53 269l2 14q4 61 11 98q4 18 18 29.5t33 11.5q18 8 37 2q20 -8 29.5 -26.5t2.5 -38.5q-14 -43 -30 -107q-4 -47 -8 -74q-8 -51 -33 -139l-15 -57l-4 -29q-18 -135 -14 -227q6 -100 33 -137q12 -16 26 -31q37 -27 90 -47 q31 -12 64 -21q31 -4 61 0q10 53 27 111q33 197 137 295q76 74 164 65q53 -4 85 -44t32 -103q0 -174 -154 -303q-4 -8 -8 -12q-72 -92 -154 -115q-31 -8 -67 -10q-12 -4 -25 -4q-8 0 -16 4q-47 2 -98 14q-123 12 -207 94q-78 59 -99 133zM819 90q49 23 92 53q39 78 54 160 q6 48 -2 66q-16 -2 -25 -4q-14 -4 -39 -43q-27 -43 -51 -113q-12 -31 -21 -64q-6 -27 -8 -55z" />
<glyph unicode="7" horiz-adv-x="948" d="M205 1175.5q0 20.5 15.5 36t35.5 15.5q23 0 57.5 4t57 9t75.5 15l74 15q174 35 252 20q12 -2 23 -6q6 -2 10 -2q111 -37 96 -201q-4 -43 -18 -108q-16 -76 -17 -78l-35 -195l-28 -172q-4 -53 -10 -166q-8 -166 -17 -235q-4 -29 -28 -39q-2 -20 -2.5 -40.5t-16.5 -35 t-36.5 -14.5t-35 16.5t-14.5 36.5q8 195 57 492q4 31 7 59q6 49 23.5 167t23.5 181q0 6 10 64q6 47 8 78q4 72 -10 96h-4h-2q-16 2 -47 0q-51 -2 -144 -17q-47 -8 -153 -28q-86 -16 -109 -19q-8 0 -14 2q-18 -2 -33 -2q-20 0 -35.5 15.5t-15.5 36z" />
<glyph unicode="8" horiz-adv-x="1243" d="M338 1061q29 152 100 250q8 12 24.5 26.5t33 26.5t16.5 14q16 14 37.5 12.5t36.5 -16.5q8 -10 10 -24q123 49 229.5 25.5t184.5 -101.5q61 -63 87.5 -145t1 -173.5t-109.5 -160.5q-31 -27 -69 -50q41 -8 73 -22q205 -94 203 -309q-4 -231 -178 -326q-154 -80 -367 -20 q-47 12 -80 28q-66 31 -86 74q-39 74 -12 199q18 92 59 176q31 66 68 127q-145 10 -225 108q-74 96 -37 281zM438 1040q-29 -137 19 -194q66 -86 215 -72q22 16 49 6q123 25 203 92q84 80 84 169t-72 161q-45 45 -105.5 66.5t-136.5 5t-147 -75.5q-27 -25 -60 -6 q-35 -72 -49 -152zM573 348q-18 -90 2 -133q6 -10 39 -27q27 -12 66 -22q172 -49 289 12q123 66 125 236q2 150 -142 215q-20 10 -39.5 15t-47 7t-42.5 2h-55h-51h-6q-47 -74 -88 -153q-35 -72 -50 -152z" />
<glyph unicode="9" horiz-adv-x="1257" d="M250 1034q4 121 60.5 227.5t167 175t253.5 68.5q250 0 414 -162q35 -6 41 -43q20 -154 23 -342t-5 -337.5t-17 -348t-9 -329.5q0 -20 -15.5 -36t-36 -16t-36 15.5t-15.5 36.5q0 137 23 587q-205 -49 -346 -32q-168 20 -287 104t-170 194.5t-45 237.5zM352 1030 q-4 -100 36 -188t137.5 -157t238.5 -85q125 -16 330 35q4 2 10 2q14 372 -17 620q-137 145 -356 146q-168 0 -270.5 -109.5t-108.5 -263.5z" />
<glyph unicode=":" horiz-adv-x="425" d="M240 903.5q0 20.5 15 35.5t35.5 15t36 -15t15.5 -35.5t-15.5 -36t-36 -15.5t-35.5 15.5t-15 36zM276 204.5q0 20.5 15.5 36t36 15.5t36 -15.5t15.5 -36t-15.5 -35.5t-36 -15t-36 15t-15.5 35.5z" />
<glyph unicode=";" horiz-adv-x="366" d="M54 -109.5q3 21.5 20 33.5q72 53 102 113q33 59 41 151q2 20 18.5 35t37 12.5t34.5 -19t12 -36.5q-10 -115 -53 -192q-41 -78 -131 -146q-16 -12 -37.5 -9t-34 19.5t-9.5 38zM207 835.5q0 20.5 15.5 36t36 15.5t35.5 -15.5t15 -36t-15 -36t-35.5 -15.5t-36 15.5t-15.5 36 z" />
<glyph unicode="&#x3c;" horiz-adv-x="1150" d="M584 514q6 20 26 41q12 12 33 27q35 27 88 55q113 66 162 78q20 6 38.5 -5.5t24 -32t-6 -39t-31.5 -22.5q-35 -10 -136 -67q-35 -18 -59 -35q23 -4 70 -6q221 -12 274 -29q20 -6 30.5 -24.5t4.5 -39t-24.5 -30.5t-39.5 -4q-41 12 -252 25q-86 6 -124 14q-31 6 -50 20 q-43 29 -28 74z" />
<glyph unicode="=" horiz-adv-x="1091" d="M565 332.5q-2 21.5 11 38t36 18.5q88 8 381 8q20 0 35.5 -15t15.5 -35.5t-15 -36t-36 -15.5q-291 0 -372 -8q-20 -2 -37 11t-19 34.5zM566 500.5q3 21.5 20 34t37 10.5q154 -23 288 -17q20 0 37 -14t17 -34.5t-14.5 -37t-35.5 -16.5q-143 -6 -305 16q-23 4 -35 20.5 t-9 38z" />
<glyph unicode="&#x3e;" horiz-adv-x="821" d="M335 437.5q7 19.5 25 29.5q47 23 185 121l86 67l-43 11q-147 31 -201 67q-18 12 -21.5 33.5t8 39t33 20.5t37.5 -7q39 -27 164 -55l51 -10q31 -6 35 -6q20 -4 31 -9q10 -2 14 -4q8 -2 13 -6q16 -12 20 -29q6 -23 -4 -45q-4 -10 -14 -22q-14 -16 -39 -39q-39 -35 -111 -88 q-145 -106 -198 -133q-20 -8 -40 -1t-29 26.5t-2 39z" />
<glyph unicode="?" horiz-adv-x="1296" d="M231 950q-23 68 9 154q53 152 223 289q178 141 358 163q180 20 301 -96q41 -31 68 -84q113 -186 10 -397q-27 -55 -77 -121.5t-81 -99.5l-94 -101l-47 -51q-25 -66 -51 -219q-4 -20 -21.5 -31.5t-40.5 -9.5q-8 2 -16 8q-20 -14 -43 -10q-35 6 -43 43q-4 18 2 45 q8 39 29 88q10 25 26 51l5 11q12 43 24 61q29 43 76 94q12 25 29 45q25 37 92 119q57 72 84 113q74 113 65 219q-16 92 -84 145q-14 14 -33 23q-123 29 -301 -35q-104 -37 -190 -92q-66 -59 -92 -119q-35 -76 -35 -180q0 -2 1 -4t3 -9.5t4 -11.5q4 -18 4 -32q29 -27 13 -60 q-10 -20 -30 -27.5t-38 0.5q-86 39 -109 119zM577.5 52.5q6.5 19.5 26 29.5t39.5 4q78 -25 197 -4q20 2 37.5 -10.5t20.5 -33t-9 -37.5t-33 -21q-143 -25 -246 8q-18 6 -28.5 25.5t-4 39zM588 266q0 21 15 36t36 15t37 -14q35 -37 69 -43q31 -6 91 8q20 6 38.5 -5 t23.5 -31.5t-6 -39t-32 -22.5q-82 -20 -135 -10q-63 12 -123 69q-14 16 -14 37z" />
<glyph unicode="@" horiz-adv-x="1411" d="M444 772q4 37 21.5 73t33 54.5t42.5 46.5q59 63 75 98q3 15 11 27l4 8q4 20 22.5 31.5t38.5 5.5q4 0 6 -2q68 31 142 39q150 14 223 -70q25 -27 33 -57q6 -2 14 -6q10 -4 51 -19.5t61.5 -25.5t52.5 -31.5t51.5 -54.5t31.5 -76q16 -63 -8 -147q-27 -92 -29 -109 q0 -4 8 -72q8 -78 -16 -116q-31 -47 -115 -90q-70 -37 -162 -64q-211 -61 -317 -27q-74 25 -135.5 85.5t-89.5 134.5q-16 39 -16.5 100t-2.5 74q-2 16 -8 41q-2 6 -5 20t-5 23q-16 61 -13 106zM547 764q-2 -29 8 -74q2 -8 6 -22.5t6 -20.5l11 -49q2 -20 2 -90q0 -43 8 -64 q20 -51 66 -96t98 -61q76 -27 256 26q82 25 143 56q59 31 76 57q4 6 0 45q-10 80 -8 98q2 23 32 127q16 55 9 88q-8 29 -17.5 46.5t-30 32t-34 20.5t-52.5 20l-57 23q-29 12 -43 24q-18 14 -27 39q-6 18 -14 29q-39 43 -133 33q-80 -8 -139 -45q-25 -51 -97 -129 q-66 -70 -69 -113zM610 653q25 106 90 185q80 96 183 104q116 9 225 -104q16 -6 27 -21q4 -6 6 -14q10 -31 4 -92q-6 -45 -19 -88v-50v-41q2 -4 2 -8v-2v-2v-2v-10v-47q0 -20 -15 -35.5t-35.5 -15.5t-36 15t-15.5 36v6q-57 -53 -125 -80q-82 -33 -149 -18q-84 18 -129 100 q-39 72 -13 184zM1022 541q2 -8 2 -17v19z" />
<glyph unicode="A" horiz-adv-x="940" d="M39 1159q-1 7 -1 13q0 20 15 34q117 113 213 164q12 6 23 12q117 56 241 56h13q186 -6 272 -201q16 -37 29 -80q49 -122 49 -307q0 -38 -2 -78q-2 -72 -12 -160q-6 -94 -17 -217q-31 -301 -31 -319q0 -20 -16 -34.5t-37 -14.5q-16 0 -30 10q-18 4 -29.5 19.5t-11.5 34 t2 36.5q-82 -35 -134 -53q-116 -47 -221 -47q-75 0 -145 24q-35 12 -62 29q-45 27 -61 63q-13 31 -13 66q0 46 23 100q12 29 33 66q4 6 15.5 24.5t15.5 26.5q100 180 257.5 323.5t344.5 176.5h14q-6 115 -31 198q-51 125 -167 176q-51 22 -106 22q-66 0 -138 -32l-37 -20 q-74 -45 -170 -156q-14 -14 -35.5 -16t-38.5 12q-15 15 -15 36q0 6 1 13zM215 176q24 -44 112 -44q59 0 146 20q31 8 66 18q78 33 180 100q4 2 6 4q4 29 23 136q20 133 28 211q6 90 6 167h-12q-8 1 -17 1q-104 0 -247 -113q-152 -121 -242 -281q-60 -106 -60 -171 q0 -28 11 -48z" />
<glyph unicode="B" horiz-adv-x="1384" d="M70 1442v8q0 31 30 45q8 33 43 39h6q17 0 31 -10q17 -12 21 -35q26 -184 26 -413v-48q213 88 389 107q63 7 122 7q201 0 349 -77q240 -123 250 -399v-12q1 -76 -23 -157q-26 -87 -77 -149q-70 -86 -208 -154.5t-304 -107.5q-188 -47 -335 -47q-111 0 -200 27q0 -4 -2 -7 v-39q0 -20 -15 -35.5t-35.5 -15.5t-36 15.5t-15.5 35.5q0 852 -4 1016q-1 41 -1 76t1 64q0 61 -2 133.5t-10 132.5zM195 174q8 2 16 2q346 0 625 107q358 137 383 397q1 15 1 28q0 118 -92 183q-96 68 -282 80q-44 3 -89 3q-116 0 -241 -18q-174 -26 -291 -63 q-2 -113 -14 -354.5t-16 -364.5z" />
<glyph unicode="C" horiz-adv-x="1019" d="M12 621q12 223 129 372.5t283 180.5q39 8 77 7q125 0 232 -84q139 -110 185 -339q2 -10 -3 -23q4 -18 -4 -34.5t-26 -22.5q-20 -8 -40 0.5t-26 28.5q-35 90 -80 155.5t-92 101.5q-47 38 -97 56q-43 16 -84 15h-13q-47 -3 -91 -21q-123 -51 -186 -209q-36 -90 -36 -202 q0 -83 20 -179q18 -84 90 -152.5t170 -101.5q60 -21 121 -21q35 1 69 7q96 18 154 86q10 12 18 28l17 29q6 10 13 34.5t9 34t10 42.5l11 39q6 29 37 36q15 25 40 25q7 0 15 -2q20 -6 32 -24q8 -12 7 -24q0 -7 -2 -14q-4 -14 -12.5 -53t-15.5 -65.5t-20.5 -62.5t-29.5 -60 q-74 -119 -227 -172q-85 -24 -161 -24q-57 -1 -107 13q-118 32 -214 130q-86 90 -132 215q-41 111 -41 224q0 15 1 30z" />
<glyph unicode="D" horiz-adv-x="970" d="M47 641q-4 36 -4 70q0 87 29 165q41 108 127 173q80 63 189 63h12q116 -4 229 -80q78 -53 139 -137q2 10 5 70.5t3 77t2 67.5t2 78v65q0 43 -3 77t-7 69v8q0 33 31 45q12 27 39 31h5q17 -1 33 -11q18 -12 21 -32q25 -156 26 -366v-46q0 -181 -7 -315q-3 0 -4 -210 q0 -52 1 -118l3 -330q0 -20 -15.5 -35.5t-36 -15.5t-36 15.5t-15.5 35.5v11q-10 0 -18 4h-2q-279 78 -449 178q-268 162 -299 393zM150 653q23 -180 249 -317q142 -84 365 -152q-3 318 -3 444q0 63 1 77q-84 170 -191 241q-88 60 -174 62q-3 0 -6 1q-82 0 -131 -44 q-61 -45 -93 -127q-22 -56 -21 -121q-1 -31 4 -64z" />
<glyph unicode="E" horiz-adv-x="917" d="M-59 492v6q0 18 11 32q13 16 36 19l22 2q2 68 13 131q12 88 42.5 164t81 140.5t127 104t172.5 46.5q20 1 43.5 1t51.5 -1q74 -4 104 -17q51 -20 104.5 -74.5t73.5 -107.5q25 -57 41 -203q8 -74 8 -123q-2 -33 -8 -53q-8 -35 -26 -53q-12 -10 -35 -14q-10 -4 -27 -7 q-18 -2 -47 -4q-47 -10 -117 -10h-24h-4q-51 -4 -111 -6q-64 -4 -330 -14q12 -195 95 -363q8 -20 0.5 -39.5t-25.5 -30.5q-12 -4 -25 -4q-10 -5 -21 -5q-7 0 -15 3q-18 6 -29 25q-94 170 -111 412l-16 -3q-20 -2 -36.5 11t-18.5 35zM143 561q141 12 271 17q9 1 21 1 q28 0 67 -4q70 -2 80 -2q63 4 106 7q14 2 25 2q14 4 26 8q6 4 13 28q5 22 5 51q0 22 -3 48q-6 55 -20.5 105t-26.5 67q-55 76 -166 108q-41 11 -76 11q-33 0 -59 -9q-56 -18 -119 -77q-130 -125 -144 -361z" />
<glyph unicode="F" horiz-adv-x="901" d="M53 979.5q0 21.5 14.5 37t34.5 15.5l191 4v54q0 47 1 62t3 55t4 62.5t6 55.5t9.5 61.5t13.5 55.5q16 61 74.5 94t127.5 39q22 3 45 2q43 1 85 -9q64 -16 104 -52q10 -10 19.5 -21.5t15.5 -22t13 -24.5t9 -23l11 -24q6 -18 7 -22.5t7 -22.5l4 -19q2 -8 2 -15q0 -12 -6 -24 q-10 -18 -30.5 -24t-39 4t-24.5 31l-6 24q-20 4 -33 21q-58 87 -123 87q-16 0 -33 -5q-37 -12 -67.5 -52.5t-38.5 -107.5q-16 -113 -27 -238q98 2 190 2q20 0 36 -15t16 -35.5t-15.5 -36t-36.5 -15.5q-96 0 -196 -2q-2 -55 -4 -116.5t-2 -110.5v-123v-113l4 -121 q2 -80 3 -111.5t5 -120.5t4 -114q0 -20 -14.5 -36.5t-34.5 -16.5h-4q-34 0 -45 33h-4q-20 2 -34.5 17t-12.5 38q3 42 3 102q0 30 -1 64q-6 143 -7 174q0 197 13 553l-183 -4q-23 0 -38 14t-15 35.5z" />
<glyph unicode="G" horiz-adv-x="954" d="M-2 559q-19 61 -19 126q0 88 35 183q62 164 187 277q135 121 280 131q16 1 31 1q152 0 268 -128q33 -37 56 -74q14 -4 24 -14q8 -8 12 -21q2 -6 2 -10v-10v-23q16 -47 27 -102q1 -5 1 -10q0 -31 -32 -45q31 -195 37 -353q1 -26 1 -51q0 -112 -15 -200v-11 q-20 -203 -156 -305q-154 -117 -473 -127q-23 0 -38 14.5t-15 36t14.5 37t34.5 15.5q43 2 80 4l12 4q29 8 112 25.5t129 35t85 45.5q86 63 115 238q2 24 2 54q0 87 -13 224q-39 -94 -90 -159.5t-120 -96.5q-68 -31 -136 -31h-4q-70 1 -139 27q-102 37 -183 116t-112 177z M96 588q23 -72 86.5 -134.5t145.5 -91.5q49 -20 99 -20q27 0 54 6q78 14 129 80q111 141 150 414l2 4v24l-35 174q-2 4 -2 11q-10 12 -23 24q-85 96 -194 96q-9 0 -19 -1q-111 -8 -219 -105q-106 -98 -158 -233q-30 -81 -30 -154q0 -49 14 -94z" />
<glyph unicode="H" horiz-adv-x="858" d="M68 1425q-2 7 -2 14q0 13 7 25q11 19 31 23q8 2 16 2q21 0 36 -16q12 -12 16 -31l8 -51q29 -133 43.5 -294t16.5 -270.5t2 -291.5q109 111 270 112h6q115 0 187 -76q59 -63 83 -176q8 -35 13.5 -75.5t7.5 -86t3 -73.5v-33.5v-43.5q-1 -48 -1 -60q0 -20 -15.5 -36 t-35.5 -16q-23 0 -39 17q-16 4 -28.5 18t-12.5 33q0 164 -16 262q-25 153 -82 184q-4 2 -11 2h-39q-45 -2 -57 -4q-76 -12 -140.5 -74.5t-92.5 -146.5q-2 -16 -2 -29l-4 -88q0 -4 1 -21.5t1 -25.5v-37q0 -8 -2 -16q-4 -12 -15 -20q-27 -27 -57 -11q-8 4 -14 11 q-27 14 -39 45q-8 25 -9 59v10q0 48 17 119l12 51v168q0 565 -51 895z" />
<glyph unicode="I" horiz-adv-x="309" d="M-20 1326q2 20 19.5 33t37.5 11q12 -2 24 -2q42 0 72 23q-6 -2 -14 -7q-20 -6 -39 3.5t-26 30t2.5 39t29.5 26.5q43 14 76.5 14.5t56.5 -14.5q33 -18 39 -54t-8 -59q-24 -50 -86 -80q-49 -24 -108 -24q-15 0 -31 2q-20 2 -34 20q-12 15 -12 31q1 4 1 7zM39 901 q-2 8 -2 15q0 12 6 24q10 18 31 25q7 2 14 2q10 1 22 -5q18 -10 25 -26h2q23 2 39.5 -10.5t20.5 -32.5q65 -439 65 -870v-13q0 -27 -20 -41q-14 -26 -43 -26h-2q-20 0 -36 15t-16 36q0 68 -6 147.5t-12 137.5l-21 151l-18 143q-2 25 -8 83.5t-10 88t-12.5 74.5t-18.5 82z " />
<glyph unicode="J" horiz-adv-x="780" d="M53 825q4 20 21.5 32.5t38.5 10.5q18 -4 30.5 -19t12.5 -34v-2q0 -205 12 -309q12 -84 33 -158q41 -139 100 -210q50 -60 110 -60q11 0 21 2q23 2 49 10l31 12q8 6 18 37q10 35 17 88q6 45 12 172q2 133 2 170t-4 170q-4 98 -8 168q-1 29 -1 94v75v31q0 105 -6 176 q-7 81 -28 155q-6 20 4 38.5t31 24.5q8 2 16.5 2t16.5 -2q7 2 14 2q13 0 26 -7q19 -10 25 -28q27 -82 51.5 -298t32.5 -445q3 -88 3 -166q0 -157 -11 -276q-10 -102 -29 -172q-20 -82 -57 -119q-59 -57 -136 -64q-13 -2 -26 -2q-62 0 -115 31q-207 104 -272 393 q-14 66 -22 141q-21 129 -21 228q0 59 8 108z" />
<glyph unicode="K" horiz-adv-x="765" d="M94 1358v7q0 33 33 46q6 4 14 6q7 2 14 2q13 0 25 -7q19 -11 23 -32q63 -260 69 -655q147 190 203 274q8 10 19 17l2 2q12 16 33.5 19t38 -9t19.5 -33.5t-9 -38.5l-172 -235l-97 -129q93 6 172 6q112 0 195 -12q20 -4 32 -22q10 -14 11 -30q0 -4 -1 -8 q-3 -20 -20.5 -32.5t-38.5 -10.5h-2h-12q-106 7 -199 7t-174 -7q0 -43 -1 -115.5t-2 -130t-1 -108.5q0 -35 -32 -47v-14q-2 -20 -18 -35q-13 -13 -30 -13h-6q-22 2 -36.5 17.5t-12.5 38.5q4 70 6 142q1 29 1 59q0 46 -2 98q-3 86 -7 137l-8 160l-8 145q-4 61 -6 275 q-4 166 -15 266z" />
<glyph unicode="L" horiz-adv-x="346" d="M168 1410q0 22 16 38q14 16 37 16q20 0 36.5 -14t16.5 -35l5 -147q4 -152 4 -267q10 -786 16 -948q0 -20 -14.5 -36.5t-34.5 -16.5h-4q-30 0 -43 29q-27 12 -29 43q-4 84 -4 226q0 177 6 445q4 193 4 252q-2 154 -4 273z" />
<glyph unicode="M" horiz-adv-x="1538" d="M121 1016v6q0 19 10 33q12 27 41 30h8q31 0 45 -28q88 63 228 78q17 2 33 1q147 0 235 -132q23 45 53 75q74 77 167 103q50 14 99 14q41 0 81 -10q87 -22 163 -80.5t117 -144.5q70 -139 85 -317q6 -67 5 -131q-1 -105 -15 -199q-24 -152 -75 -308q-8 -20 -26.5 -29.5 t-39 -2t-30 25.5t-2.5 39l2 4q-16 8 -24.5 25.5t-2.5 33.5q58 187 58 372q0 75 -9 149q-39 307 -233 407q-59 29 -114 29q-26 0 -50 -6q-43 -12 -73 -82t-42 -191q0 -14 -2 -28q27 -145 27 -385v-174q0 -59 -2 -93q0 -23 -2 -32q0 -8 -2 -15l-5 -12q-4 -8 -8 -14 q-16 -16 -39 -17q-31 0 -47 29q-4 8 -8 18q-2 10 -4 31q-2 2 -2 6q-20 57 -21 152q2 27 5 82q0 18 -15 135q-14 133 -18 217v65q-39 160 -107 213q-39 32 -99 32q-89 0 -224 -72q34 -367 34 -836v-27q0 -33 -28 -45v-16q0 -20 -15.5 -35.5t-36 -15.5t-36 15t-15.5 36 q-1 68 5 314q3 123 3 224q-1 100 -3 178q-6 156 -29 306z" />
<glyph unicode="N" horiz-adv-x="1015" d="M82 1223v5q0 18 11 32q13 16 36 18q33 2 49 -27q98 84 218 114q48 12 96 12q72 0 143 -27q121 -45 194 -170q92 -156 121 -351q19 -119 18 -230q0 -73 -8 -143q-20 -176 -77 -356q-6 -20 -25.5 -29.5t-40 -3t-30 26t-3.5 39.5q55 168 75 335q8 70 8 141q0 100 -16 203 q-28 177 -108 314q-93 146 -253 146h-4q-162 -2 -281 -137q0 -154 7 -490t7 -512q0 -14 -8 -29v-10q0 -20 -15.5 -35.5t-36 -15.5t-35.5 15.5t-15 35.5v195v213q0 74 -1.5 187.5t-5.5 211.5t-10 195q-11 15 -11 30q0 12 7 25q-2 37 -6 72z" />
<glyph unicode="O" horiz-adv-x="1247" d="M104 674q35 215 162 375q61 78 135 120q14 30 43 30q5 0 11 -1l2 -2q20 8 41 12q16 18 39 19q205 0 349 -98.5t222 -258.5q95 -158 95 -324q0 -74 -19 -149q-12 -51 -37 -104q-31 -129 -113 -205q-23 -23 -49 -39q-113 -107 -270 -107q-17 0 -35 1q-133 8 -279 84 q-207 104 -274 264q-37 90 -37 216q0 77 14 167zM223 561v-14q0 -198 113 -320q45 -51 106 -84q10 -2 21 -6q104 -33 274 -43q18 -1 34.5 -1t33.5 1q109 25 182 119l4 10q35 57 51 90l9 21q2 8 4 26q7 47 7 97q0 80 -18 166q-29 143 -88 249q-20 37 -44.5 66t-44 48.5 t-55.5 34.5t-55.5 22.5t-65.5 16.5t-64.5 11t-75.5 10q-12 -27 -43 -30q-45 -4 -86 -33q-80 -68 -133 -176q-20 -49 -35 -105q-25 -86 -31 -176z" />
<glyph unicode="P" horiz-adv-x="1216" d="M80 952q0 20 14.5 37t35 17t36.5 -14.5t16 -35.5q27 -8 35 -34q92 82 240 131q117 38 219 38q172 0 299 -108q92 -78 143 -201q49 -123 51 -278v-12q0 -92 -28 -181q-31 -98 -101 -159q-43 -37 -96 -64t-128 -44t-106.5 -22.5t-115.5 -17.5q-80 -10 -122 -14 q-17 -2 -38 -2q-32 0 -74 4q-70 6 -124 31q-2 -123 -11 -232q-3 -21 -19 -35q-14 -13 -31 -12h-5q-27 2 -39 25q-16 14 -16 36q0 279 -35 1147zM233 532q4 -268 5 -393q61 -45 151 -49q15 -1 30 -1q77 0 163 17q98 12 148 21.5t125 36t120 65.5q47 41 69 117q23 69 23 146 v12q-6 274 -158 401q-98 82 -234 82q-86 0 -186 -33q-180 -57 -256 -170q1 -23 1 -72v-56q-1 -93 -1 -124z" />
<glyph unicode="Q" horiz-adv-x="997" d="M-94 725q0 90 6 154.5t34.5 153.5t80.5 149q104 117 237 152q60 17 117 17q70 0 135 -24q121 -39 217 -135t144 -227q6 -18 -3.5 -38t-29.5 -28h-4v-29q0 -51 -6 -102l2 -94q14 -391 14 -430v-123v-23l33 13q20 6 38.5 -3.5t25.5 -29.5q3 -9 3 -18q0 -11 -5 -22 q-9 -18 -30 -26l-51 -16q-23 -6 -35 -10q-10 -2 -18 -4h-10q-18 0 -33 10q-12 8 -16 22q-2 4 -2 9q-2 2 -2 4v2v2v4v4v2q-37 8 -39 47q-5 107 -9 320q-66 -100 -151 -146q-86 -44 -185 -44q-49 0 -102 11q-158 33 -250 140q-66 74 -87 159q-19 79 -19 178v19zM8 725v-18 q0 -86 17 -148q16 -68 65 -125q70 -80 194 -104q42 -9 81 -9q75 0 135 31q94 49 166 211q16 37 28 70q-8 248 -22 426q-2 20 10 37q-84 96 -197 133q-49 19 -103 19q-44 0 -92 -13q-104 -29 -186 -123q-57 -63 -75 -160q-18 -94 -21 -227z" />
<glyph unicode="R" horiz-adv-x="755" d="M80 1049q-4 9 -4 19q0 8 4 18q8 20 29 28q11 5 21 5q15 0 28 -11q20 2 36.5 -9.5t20.5 -29.5q16 -63 23 -139q174 158 401 176q31 2 47 -23q20 -15 22 -37q0 -4 1 -6q1 -18 -11 -32q-14 -16 -34 -19q-262 -29 -402 -282q-6 -10 -16 -17q0 -8 1 -30.5t1 -34.5 q10 -111 24.5 -317t18.5 -255q2 -39 -33 -51q-16 -20 -41 -20q-20 0 -35.5 15t-15.5 36q0 98 -9.5 276t-11.5 246v68q-10 100 -24 186q-4 29 -9.5 83t-11.5 88t-20 69z" />
<glyph unicode="S" horiz-adv-x="1179" d="M-20 346v27q0 44 4 112q6 90 6 117v12v2v2h102v-2v-2v-12v-39v-137q0 -137 43 -262q10 -29 23 -51q28 -28 65 -27q15 0 32 4q58 16 81 74q33 88 47 215q1 23 1 53q0 60 -3 148q-4 87 -4 139q0 34 2 53q18 219 110 369q29 51 54 80q45 55 88 75q60 27 117 27q61 0 118 -31 q88 -47 154 -164q53 -96 83 -213.5t30 -205.5q0 -20 -15.5 -36t-36 -16t-36 15.5t-15.5 36.5q0 23 -2 47q-29 10 -35 41q-27 178 -73 274q-57 114 -142 114q-13 0 -26 -3q-96 -18 -154 -113q-51 -86 -70.5 -190.5t-27.5 -253.5q-12 -231 -15 -252q-2 -14 -2 -29 q-8 -141 -43 -229q-47 -121 -147 -158q-34 -13 -65 -13q-56 0 -103 42q-29 27 -51 65q-4 4 -11 12q-82 104 -83 283z" />
<glyph unicode="T" horiz-adv-x="481" d="M6 1237q0 20 15.5 35.5t35.5 15.5q33 0 74 4l-8 78q-2 23 11 39t34 18h6q12 15 32 17h7q17 0 31 -12q16 -14 18 -35q4 -45 6 -88q68 8 113 10q20 0 36.5 -14.5t16.5 -35t-14 -36.5t-35 -16q-45 -2 -113 -11q1 -33 1 -72q0 -155 -13 -399q-14 -268 -16 -387 q4 -137 12 -250q0 -14 -6 -28q-10 -35 -45 -37h-5q-18 0 -32 12q-16 14 -18 35q-8 123 -9 270q0 98 2 387v111q0 211 -6 342q-43 -4 -80 -4q-20 0 -35.5 15.5t-15.5 35.5z" />
<glyph unicode="U" horiz-adv-x="1089" d="M16 989q-2 6 -2 13q0 12 8 24q12 18 33 23q16 4 33 -2q8 4 16 6q7 2 14 2q13 1 25 -7q19 -12 23 -32q18 -72 29 -283q10 -203 28 -301q41 -119 101 -180q68 -70 166 -70q15 0 30 2q121 12 203 146q68 113 88 270l27 209l8 61l2 17v4v2q0 2 2 4q0 2 2 6q2 8 8 15v40 q47 0 71.5 -11t28 -20t3.5 -24v-39l4 -12q8 -35 16 -92q14 -92 29 -246l30 -422v-6q0 -19 -12 -32q-14 -15 -35 -17q-8 0 -14 2q-10 -6 -20 -6q-20 0 -37 14t-17 35q-4 82 -12 188q-92 -211 -326 -237q-33 -4 -64 -4q-157 0 -253 98q-92 94 -129 279q-4 16 -10 32 q-31 104 -60 303z" />
<glyph unicode="V" horiz-adv-x="901" d="M25 907q-4 10 -4 19q0 15 10 30q12 16 32.5 19.5t38.5 -8.5q55 -41 108.5 -99.5t99.5 -130t79 -131.5l78 -139q45 -82 68 -119q2 -4 8 -18l30 -47q10 68 11 73q6 27 20 101l23 108q6 37 21.5 103.5t28.5 110.5t32.5 99.5t42.5 104.5q10 17 30 25q9 4 18 4q10 0 21 -4 q27 -14 29 -45q5 -9 5 -19q0 -8 -3 -16q-86 -295 -143 -647q-12 -76 -21 -113q-6 -41 -12 -66q-4 -14 -8 -24l-9 -17q-16 -20 -43 -22q-18 0 -32 10l-9 8q-2 2 -5 6.5l-7 10.5q-4 8 -14 24l-39 76l-55 102l-31 48q-25 37 -84 136t-94 152q-113 170 -203 232q-24 17 -24 40 q0 11 6 23z" />
<glyph unicode="W" horiz-adv-x="1122" d="M-62 1084q7 20 25 30q11 4 22 4q15 0 27 -8q8 6 19 6q6 2 13 2q12 0 24 -8q18 -12 22 -33q29 -127 79 -402.5t81 -420.5q8 -29 41 -137l8 -27l14 12l31 60q39 74 74 108q50 46 105 46q15 0 30 -3q31 -6 82 -51q31 -25 76 -72l37 -30l2 4q16 29 36 86q31 86 68 233 q4 45 8 76q6 27 25.5 142.5t37 192.5t40.5 146q8 20 26.5 29.5t38.5 3.5q35 -13 35 -48v-7q11 -13 11 -30q0 -8 -3 -17q-10 -31 -45 -180q-45 -209 -65 -295l-9 -29q-2 -14 -2 -33l-4 -53q-4 -51 -6 -80q-18 -180 -61 -250q-36 -59 -91 -59h-4q-12 0 -24 8l-8 4q-6 4 -13 10 q-10 8 -26 27l-70 72l-4 4l-20 18q-37 31 -62 41q-20 10 -29 4q-12 -6 -49 -45q-78 -88 -82 -90l-4 -4q-8 -18 -16 -31q-16 -29 -31 -45q-27 -29 -57 -31h-5q-26 0 -42 21h-6q-40 0 -74 27q-14 12 -25 41l-10 36q-8 35 -16 95q-8 39 -15.5 94t-9.5 61q-8 57 -32.5 171 t-35.5 171q-6 37 -17 131.5t-24.5 151.5t-39.5 110q-4 11 -4 21t3 19z" />
<glyph unicode="X" horiz-adv-x="964" d="M35 976q2 22 16 34q2 14 10 26q12 16 34 19.5t38 -8.5q59 -45 113.5 -105.5t120 -146.5t88.5 -113l223 483q10 17 30 25q9 4 19 4t21 -4q27 -14 28 -43q4 -13 4 -25q-4 -53 -18 -113.5t-25.5 -95t-38 -106.5t-32.5 -92l-70 -195l276 -303l5 -4q8 -6 12 -14l14 -17 q13 -15 13 -35q0 -23 -16 -37q-15 -14 -36.5 -13t-34.5 16l-28 30q-119 102 -254 240l-150 -397q-7 -20 -27 -28q-10 -4 -21 -5l-19 4q-20 8 -27.5 27.5t0.5 38.5l133 352q-80 -188 -147 -371q-6 -18 -25.5 -27.5t-39 -2t-29 26.5t-0.5 40q88 240 200 502l-348 397 q-12 12 -12 30v6z" />
<glyph unicode="Y" horiz-adv-x="821" d="M-8 1307q-2 8 -2 16q0 11 5 23q9 18 30 26q6 2 14 2q10 10 24 12q20 2 38 -10.5t22 -32.5q6 -43 12 -120q4 -68 6 -90q20 -88 37 -146q10 -31 19 -59q6 -10 12 -19q70 -98 170 -123q29 -7 56 -7q10 0 20 1q43 49 90 142q47 94 82 200q33 111 43 181q0 27 -4 49 q-2 20 11 37.5t33 19.5h6q17 0 32 -11q18 -14 20 -34q2 -16 4 -37q3 -7 3 -14q0 -4 -1 -8q0 -4 -2 -7q1 -30 1 -60q0 -179 -52 -323q-49 -127 -131 -188q-39 -29 -86 -41l-10 -10q-12 -10 -25 -19q0 -27 2 -55q14 -129 21 -358q6 -86 16 -203q2 -20 -12.5 -36.5t-35.5 -18.5 h-5q-17 0 -31 12q-16 14 -18 35v4q-10 12 -11 29q-2 31 -3 93t-3 83q-14 195 -20 352q-2 14 -2 27h-8q-41 0 -83 18q-104 51 -172 246q-47 80 -61 209q-2 10 -2 20l-10 41q-27 115 -39 152z" />
<glyph unicode="Z" horiz-adv-x="712" d="M53 1110q0 29 23 45v12q0 20 16.5 35t36.5 15h6q41 0 238 20q98 10 141 14q31 2 49 2h19q8 -2 12 -2q18 -4 29 -18q16 -20 16 -53q-2 -18 -6 -43q-10 -39 -30.5 -100.5t-59.5 -162.5q-43 -113 -94 -272q-63 -231 -87 -301q-2 -4 -10 -25.5t-20.5 -57.5t-22.5 -62l-22 -66 q33 2 84 6q8 0 118 8q61 6 80 7q31 0 45 -27h7q19 -2 33 -18q12 -14 12 -33v-5q-2 -22 -18 -35q-14 -11 -34 -11h-6q-11 1 -63.5 1t-147.5 -1q-41 -1 -72 -1t-51 1q-27 0 -43 2q-12 2 -20 4q-4 0 -8 2h-2q-20 4 -33 16q-14 14 -14 35v12q0 4 2 10q2 8 8 23q6 20 18 55 q8 16 15.5 37t12.5 33t5 16q35 90 115 340l20 64l43 164q55 207 70 276q8 39 12 66l-102 -27q-193 -47 -267 -49q-23 0 -38 14.5t-15 34.5z" />
<glyph unicode="[" horiz-adv-x="610" d="M123 109q6 14 8 20v2q6 35 8 77t2 72.5t-1 82t-1 79.5q0 84 21 303q18 197 18 295q0 6 -18 123q-14 104 12 156q18 37 72 65q39 20 94 37q113 33 178 27q23 -2 36 -18.5t11 -38t-18.5 -34.5t-36.5 -11q-47 4 -141 -23q-45 -14 -76 -29q-25 -14 -29 -20q-10 -25 0 -96 q18 -129 19 -138q0 -84 -21 -303q-18 -197 -18 -295q0 -25 1 -77t1 -84.5t-2 -79.5t-9 -84q14 0 72 2q20 0 36.5 -14.5t16.5 -35t-14 -37t-35 -16.5q-57 -2 -71 -2q-27 -2 -43 0h-21q-4 2 -10 2q-12 4 -21 11q-39 31 -20 82z" />
<glyph unicode="\" horiz-adv-x="708" d="M71 1249q5 21 23.5 32t39 6t30.5 -23q94 -154 177 -338.5t175 -419t141 -346.5q8 -18 1 -39t-26.5 -29t-40 -1t-28.5 28q-53 119 -144 351t-171 410.5t-170 329.5q-12 18 -7 39z" />
<glyph unicode="]" horiz-adv-x="493" d="M9 1266.5q-7 19.5 2.5 39t29.5 27.5q53 18 158 31q55 6 94 4q63 -4 89 -32.5t32 -94.5q4 -43 0 -108q0 -39 -6.5 -104.5t-6.5 -72.5q0 -33 9 -174q0 -10 18 -293q12 -193 16 -280q4 -61 5 -94v-33q0 -6 -3 -12q0 -12 -6 -21q-6 -14 -26 -35l-31 -26l-53 -41 q-16 -12 -37 -9t-34 19t-10 36.5t19 35.5q45 35 49 39q16 12 27 22l2 2v21q0 33 -4 92q-4 86 -16 276q-18 272 -19 295q-8 147 -8 185q0 12 6 75.5t8 102.5q2 57 -2 92q-2 23 -4 33q-8 0 -18 2q-31 2 -80 -4q-92 -10 -135 -27q-18 -6 -38 3t-27 28.5z" />
<glyph unicode="^" horiz-adv-x="970" d="M473 932q8 43 84 260q35 104 55 156q12 35 23 55q6 12 10 18q10 18 25 27q45 23 84 -12q20 -18 37 -54q27 -47 55 -147q20 -68 43 -166q27 -102 33 -122.5t-4.5 -39t-31 -24.5t-39 4t-24.5 30.5t-32 122.5q-25 100 -43 166q-20 72 -39 109v-4q-23 -57 -56 -152 q-72 -207 -78 -248q-4 -20 -22 -32.5t-38.5 -8.5t-33 23t-8.5 39z" />
<glyph unicode="_" horiz-adv-x="1236" d="M367 -36.5q0 20.5 15.5 35.5t35.5 15q76 0 356 23q227 18 371 2q20 -2 33.5 -18.5t11.5 -38t-18.5 -35t-38.5 -10.5q-133 14 -351 -3q-299 -23 -364 -22q-20 0 -35.5 15.5t-15.5 36z" />
<glyph unicode="`" horiz-adv-x="460" d="M157 1340.5q5 21.5 23 31.5q33 23 62 -6q14 -4 24 -14q86 -92 123 -144q18 -27 23 -43q4 -10 4 -20q-2 -27 -25 -43q-18 -12 -41 -6q-8 2 -16 6q-27 14 -74 67q-49 59 -96 134q-12 16 -7 37.5z" />
<glyph unicode="a" horiz-adv-x="940" d="M39 1159q-1 7 -1 13q0 20 15 34q117 113 213 164q12 6 23 12q117 56 241 56h13q186 -6 272 -201q16 -37 29 -80q49 -122 49 -307q0 -38 -2 -78q-2 -72 -12 -160q-6 -94 -17 -217q-31 -301 -31 -319q0 -20 -16 -34.5t-37 -14.5q-16 0 -30 10q-18 4 -29.5 19.5t-11.5 34 t2 36.5q-82 -35 -134 -53q-116 -47 -221 -47q-75 0 -145 24q-35 12 -62 29q-45 27 -61 63q-13 31 -13 66q0 46 23 100q12 29 33 66q4 6 15.5 24.5t15.5 26.5q100 180 257.5 323.5t344.5 176.5h14q-6 115 -31 198q-51 125 -167 176q-51 22 -106 22q-66 0 -138 -32l-37 -20 q-74 -45 -170 -156q-14 -14 -35.5 -16t-38.5 12q-15 15 -15 36q0 6 1 13zM215 176q24 -44 112 -44q59 0 146 20q31 8 66 18q78 33 180 100q4 2 6 4q4 29 23 136q20 133 28 211q6 90 6 167h-12q-8 1 -17 1q-104 0 -247 -113q-152 -121 -242 -281q-60 -106 -60 -171 q0 -28 11 -48z" />
<glyph unicode="b" horiz-adv-x="1384" d="M70 1442v8q0 31 30 45q8 33 43 39h6q17 0 31 -10q17 -12 21 -35q26 -184 26 -413v-48q213 88 389 107q63 7 122 7q201 0 349 -77q240 -123 250 -399v-12q1 -76 -23 -157q-26 -87 -77 -149q-70 -86 -208 -154.5t-304 -107.5q-188 -47 -335 -47q-111 0 -200 27q0 -4 -2 -7 v-39q0 -20 -15 -35.5t-35.5 -15.5t-36 15.5t-15.5 35.5q0 852 -4 1016q-1 41 -1 76t1 64q0 61 -2 133.5t-10 132.5zM195 174q8 2 16 2q346 0 625 107q358 137 383 397q1 15 1 28q0 118 -92 183q-96 68 -282 80q-44 3 -89 3q-116 0 -241 -18q-174 -26 -291 -63 q-2 -113 -14 -354.5t-16 -364.5z" />
<glyph unicode="c" horiz-adv-x="1019" d="M12 621q12 223 129 372.5t283 180.5q39 8 77 7q125 0 232 -84q139 -110 185 -339q2 -10 -3 -23q4 -18 -4 -34.5t-26 -22.5q-20 -8 -40 0.5t-26 28.5q-35 90 -80 155.5t-92 101.5q-47 38 -97 56q-43 16 -84 15h-13q-47 -3 -91 -21q-123 -51 -186 -209q-36 -90 -36 -202 q0 -83 20 -179q18 -84 90 -152.5t170 -101.5q60 -21 121 -21q35 1 69 7q96 18 154 86q10 12 18 28l17 29q6 10 13 34.5t9 34t10 42.5l11 39q6 29 37 36q15 25 40 25q7 0 15 -2q20 -6 32 -24q8 -12 7 -24q0 -7 -2 -14q-4 -14 -12.5 -53t-15.5 -65.5t-20.5 -62.5t-29.5 -60 q-74 -119 -227 -172q-85 -24 -161 -24q-57 -1 -107 13q-118 32 -214 130q-86 90 -132 215q-41 111 -41 224q0 15 1 30z" />
<glyph unicode="d" horiz-adv-x="970" d="M47 641q-4 36 -4 70q0 87 29 165q41 108 127 173q80 63 189 63h12q116 -4 229 -80q78 -53 139 -137q2 10 5 70.5t3 77t2 67.5t2 78v65q0 43 -3 77t-7 69v8q0 33 31 45q12 27 39 31h5q17 -1 33 -11q18 -12 21 -32q25 -156 26 -366v-46q0 -181 -7 -315q-3 0 -4 -210 q0 -52 1 -118l3 -330q0 -20 -15.5 -35.5t-36 -15.5t-36 15.5t-15.5 35.5v11q-10 0 -18 4h-2q-279 78 -449 178q-268 162 -299 393zM150 653q23 -180 249 -317q142 -84 365 -152q-3 318 -3 444q0 63 1 77q-84 170 -191 241q-88 60 -174 62q-3 0 -6 1q-82 0 -131 -44 q-61 -45 -93 -127q-22 -56 -21 -121q-1 -31 4 -64z" />
<glyph unicode="e" horiz-adv-x="917" d="M-59 492v6q0 18 11 32q13 16 36 19l22 2q2 68 13 131q12 88 42.5 164t81 140.5t127 104t172.5 46.5q20 1 43.5 1t51.5 -1q74 -4 104 -17q51 -20 104.5 -74.5t73.5 -107.5q25 -57 41 -203q8 -74 8 -123q-2 -33 -8 -53q-8 -35 -26 -53q-12 -10 -35 -14q-10 -4 -27 -7 q-18 -2 -47 -4q-47 -10 -117 -10h-24h-4q-51 -4 -111 -6q-64 -4 -330 -14q12 -195 95 -363q8 -20 0.5 -39.5t-25.5 -30.5q-12 -4 -25 -4q-10 -5 -21 -5q-7 0 -15 3q-18 6 -29 25q-94 170 -111 412l-16 -3q-20 -2 -36.5 11t-18.5 35zM143 561q141 12 271 17q9 1 21 1 q28 0 67 -4q70 -2 80 -2q63 4 106 7q14 2 25 2q14 4 26 8q6 4 13 28q5 22 5 51q0 22 -3 48q-6 55 -20.5 105t-26.5 67q-55 76 -166 108q-41 11 -76 11q-33 0 -59 -9q-56 -18 -119 -77q-130 -125 -144 -361z" />
<glyph unicode="f" horiz-adv-x="901" d="M53 979.5q0 21.5 14.5 37t34.5 15.5l191 4v54q0 47 1 62t3 55t4 62.5t6 55.5t9.5 61.5t13.5 55.5q16 61 74.5 94t127.5 39q22 3 45 3q43 0 85 -10q65 -16 104 -52q10 -10 19.5 -21.5t15.5 -22t13 -24.5t9 -23l11 -24q6 -18 7 -22.5t7 -22.5l4 -19q2 -7 2 -15 q0 -12 -6 -24q-10 -18 -30.5 -24t-39 4t-24.5 31l-6 24q-20 4 -33 21q-58 87 -123 87q-16 0 -33 -5q-37 -12 -67.5 -52.5t-38.5 -107.5q-16 -113 -27 -238q98 2 190 2q20 0 36 -15t16 -35.5t-15.5 -36t-36.5 -15.5q-96 0 -196 -2q-2 -55 -4 -116.5t-2 -110.5v-123v-113 l4 -121q2 -80 3 -111.5t5 -120.5t4 -114q0 -20 -14.5 -36.5t-34.5 -16.5h-4q-34 0 -45 33h-4q-20 2 -34.5 17t-12.5 38q3 42 3 102q0 30 -1 64q-6 143 -7 174q0 197 13 553l-183 -4q-23 0 -38 14t-15 35.5z" />
<glyph unicode="g" horiz-adv-x="954" d="M-2 559q-19 61 -19 126q0 88 35 183q62 164 187 277q135 121 280 131q16 1 31 1q152 0 268 -128q33 -37 56 -74q14 -4 24 -14q8 -8 12 -21q2 -6 2 -10v-10v-23q16 -47 27 -102q1 -5 1 -10q0 -31 -32 -45q31 -195 37 -353q1 -26 1 -51q0 -112 -15 -200v-11 q-20 -203 -156 -305q-154 -117 -473 -127q-23 0 -38 14.5t-15 36t14.5 37t34.5 15.5q43 2 80 4l12 4q29 8 112 25.5t129 35t85 45.5q86 63 115 238q2 24 2 54q0 87 -13 224q-39 -94 -90 -159.5t-120 -96.5q-68 -31 -136 -31h-4q-70 1 -139 27q-102 37 -183 116t-112 177z M96 588q23 -72 86.5 -134.5t145.5 -91.5q49 -20 99 -20q27 0 54 6q78 14 129 80q111 141 150 414l2 4v24l-35 174q-2 4 -2 11q-10 12 -23 24q-85 96 -194 96q-9 0 -19 -1q-111 -8 -219 -105q-106 -98 -158 -233q-30 -81 -30 -154q0 -49 14 -94z" />
<glyph unicode="h" horiz-adv-x="858" d="M68 1425q-2 7 -2 14q0 13 7 25q11 19 31 23q8 2 16 2q21 0 36 -16q12 -12 16 -31l8 -51q29 -133 43.5 -294t16.5 -270.5t2 -291.5q109 111 270 112h6q115 0 187 -76q59 -63 83 -176q8 -35 13.5 -75.5t7.5 -86t3 -73.5v-33.5v-43.5q-1 -48 -1 -60q0 -20 -15.5 -36 t-35.5 -16q-23 0 -39 17q-16 4 -28.5 18t-12.5 33q0 164 -16 262q-25 153 -82 184q-4 2 -11 2h-39q-45 -2 -57 -4q-76 -12 -140.5 -74.5t-92.5 -146.5q-2 -16 -2 -29l-4 -88q0 -4 1 -21.5t1 -25.5v-37q0 -8 -2 -16q-4 -12 -15 -20q-27 -27 -57 -11q-8 4 -14 11 q-27 14 -39 45q-8 25 -9 59v10q0 48 17 119l12 51v168q0 565 -51 895z" />
<glyph unicode="i" horiz-adv-x="309" d="M-20 1326q2 20 19.5 33t37.5 11q12 -2 24 -2q42 0 72 23q-6 -2 -14 -7q-20 -6 -39 3.5t-26 30t2.5 39t29.5 26.5q43 14 76.5 14.5t56.5 -14.5q33 -18 39 -54t-8 -59q-24 -50 -86 -80q-49 -24 -108 -24q-15 0 -31 2q-20 2 -34 20q-12 15 -12 31q1 4 1 7zM39 901 q-2 8 -2 15q0 12 6 24q10 18 31 25q7 2 14 2q10 1 22 -5q18 -10 25 -26h2q23 2 39.5 -10.5t20.5 -32.5q65 -439 65 -870v-13q0 -27 -20 -41q-14 -26 -43 -26h-2q-20 0 -36 15t-16 36q0 68 -6 147.5t-12 137.5l-21 151l-18 143q-2 25 -8 83.5t-10 88t-12.5 74.5t-18.5 82z " />
<glyph unicode="j" horiz-adv-x="780" d="M53 825q4 20 21.5 32.5t38.5 10.5q18 -4 30.5 -19t12.5 -34v-2q0 -205 12 -309q12 -84 33 -158q41 -139 100 -210q50 -60 110 -60q11 0 21 2q23 2 49 10l31 12q8 6 18 37q10 35 17 88q6 45 12 172q2 133 2 170t-4 170q-4 98 -8 168q-1 29 -1 94v75v31q0 105 -6 176 q-7 81 -28 155q-6 20 4 38.5t31 24.5q8 2 16.5 2t16.5 -2q7 2 14 2q13 0 26 -7q19 -10 25 -28q27 -82 51.5 -298t32.5 -445q3 -88 3 -166q0 -157 -11 -276q-10 -102 -29 -172q-20 -82 -57 -119q-59 -57 -136 -64q-13 -2 -26 -2q-62 0 -115 31q-207 104 -272 393 q-14 66 -22 141q-21 129 -21 228q0 59 8 108z" />
<glyph unicode="k" horiz-adv-x="765" d="M94 1358v7q0 33 33 46q6 4 14 6q7 2 14 2q13 0 25 -7q19 -11 23 -32q63 -260 69 -655q147 190 203 274q8 10 19 17l2 2q12 16 33.5 19t38 -9t19.5 -33.5t-9 -38.5l-172 -235l-97 -129q93 6 172 6q112 0 195 -12q20 -4 32 -22q10 -14 11 -30q0 -4 -1 -8 q-3 -20 -20.5 -32.5t-38.5 -10.5h-2h-12q-106 7 -199 7t-174 -7q0 -43 -1 -115.5t-2 -130t-1 -108.5q0 -35 -32 -47v-14q-2 -20 -18 -35q-13 -13 -30 -13h-6q-22 2 -36.5 17.5t-12.5 38.5q4 70 6 142q1 29 1 59q0 46 -2 98q-3 86 -7 137l-8 160l-8 145q-4 61 -6 275 q-4 166 -15 266z" />
<glyph unicode="l" horiz-adv-x="346" d="M168 1410q0 22 16 38q14 16 37 16q20 0 36.5 -14t16.5 -35l5 -147q4 -152 4 -267q10 -786 16 -948q0 -20 -14.5 -36.5t-34.5 -16.5h-4q-30 0 -43 29q-27 12 -29 43q-4 84 -4 226q0 177 6 445q4 193 4 252q-2 154 -4 273z" />
<glyph unicode="m" horiz-adv-x="1538" d="M121 1016v6q0 19 10 33q12 27 41 30h8q31 0 45 -28q88 63 228 78q17 2 33 1q147 0 235 -132q23 45 53 75q74 77 167 103q50 14 99 14q41 0 81 -10q87 -22 163 -80.5t117 -144.5q70 -139 85 -317q6 -67 5 -131q-1 -105 -15 -199q-24 -152 -75 -308q-8 -20 -26.5 -29.5 t-39 -2t-30 25.5t-2.5 39l2 4q-16 8 -24.5 25.5t-2.5 33.5q58 187 58 372q0 75 -9 149q-39 307 -233 407q-59 29 -114 29q-26 0 -50 -6q-43 -12 -73 -82t-42 -191q0 -14 -2 -28q27 -145 27 -385v-174q0 -59 -2 -93q0 -23 -2 -32q0 -8 -2 -15l-5 -12q-4 -8 -8 -14 q-16 -16 -39 -17q-31 0 -47 29q-4 8 -8 18q-2 10 -4 31q-2 2 -2 6q-20 57 -21 152q2 27 5 82q0 18 -15 135q-14 133 -18 217v65q-39 160 -107 213q-39 32 -99 32q-89 0 -224 -72q34 -367 34 -836v-27q0 -33 -28 -45v-16q0 -20 -15.5 -35.5t-36 -15.5t-36 15t-15.5 36 q-1 68 5 314q3 123 3 224q-1 100 -3 178q-6 156 -29 306z" />
<glyph unicode="n" horiz-adv-x="1015" d="M82 1223v5q0 18 11 32q13 16 36 18q33 2 49 -27q98 84 218 114q48 12 96 12q72 0 143 -27q121 -45 194 -170q92 -156 121 -351q19 -119 18 -230q0 -73 -8 -143q-20 -176 -77 -356q-6 -20 -25.5 -29.5t-40 -3t-30 26t-3.5 39.5q55 168 75 335q8 70 8 141q0 100 -16 203 q-28 177 -108 314q-93 146 -253 146h-4q-162 -2 -281 -137q0 -154 7 -490t7 -512q0 -14 -8 -29v-10q0 -20 -15.5 -35.5t-36 -15.5t-35.5 15.5t-15 35.5v195v213q0 74 -1.5 187.5t-5.5 211.5t-10 195q-11 15 -11 30q0 12 7 25q-2 37 -6 72z" />
<glyph unicode="o" horiz-adv-x="1247" d="M104 674q35 215 162 375q61 78 135 120q14 30 43 30q5 0 11 -1l2 -2q20 8 41 12q16 18 39 19q205 0 349 -98.5t222 -258.5q95 -158 95 -324q0 -74 -19 -149q-12 -51 -37 -104q-31 -129 -113 -205q-23 -23 -49 -39q-113 -107 -270 -107q-17 0 -35 1q-133 8 -279 84 q-207 104 -274 264q-37 90 -37 216q0 77 14 167zM223 561v-14q0 -198 113 -320q45 -51 106 -84q10 -2 21 -6q104 -33 274 -43q18 -1 34.5 -1t33.5 1q109 25 182 119l4 10q35 57 51 90l9 21q2 8 4 26q7 47 7 97q0 80 -18 166q-29 143 -88 249q-20 37 -44.5 66t-44 48.5 t-55.5 34.5t-55.5 22.5t-65.5 16.5t-64.5 11t-75.5 10q-12 -27 -43 -30q-45 -4 -86 -33q-80 -68 -133 -176q-20 -49 -35 -105q-25 -86 -31 -176z" />
<glyph unicode="p" horiz-adv-x="1216" d="M80 952q0 20 14.5 37t35 17t36.5 -14.5t16 -35.5q27 -8 35 -34q92 82 240 131q117 38 219 38q172 0 299 -108q92 -78 143 -201q49 -123 51 -278v-12q0 -92 -28 -181q-31 -98 -101 -159q-43 -37 -96 -64t-128 -44t-106.5 -22.5t-115.5 -17.5q-80 -10 -122 -14 q-17 -2 -38 -2q-32 0 -74 4q-71 6 -124 31q-2 -123 -11 -232q-2 -20 -19 -35q-14 -12 -31 -12h-5q-27 2 -39 25q-16 14 -16 36q0 279 -35 1147zM233 532q4 -268 5 -393q61 -45 151 -49q15 -1 30 -1q77 0 163 17q98 12 148 21.5t125 36t120 65.5q47 41 69 117q23 69 23 146 v12q-6 274 -158 401q-98 82 -234 82q-85 0 -186 -33q-180 -57 -256 -170q1 -23 1 -72v-56q-1 -93 -1 -124z" />
<glyph unicode="q" horiz-adv-x="997" d="M-94 725q0 90 6 154.5t34.5 153.5t80.5 149q104 117 237 152q60 17 117 17q70 0 135 -24q121 -39 217 -135t144 -227q6 -18 -3.5 -38t-29.5 -28h-4v-29q0 -51 -6 -102l2 -94q14 -391 14 -430v-123v-23l33 13q20 6 38.5 -3.5t25.5 -29.5q3 -9 3 -18q0 -11 -5 -22 q-9 -18 -30 -26l-51 -16q-23 -6 -35 -10q-10 -2 -18 -4h-10q-18 0 -33 10q-12 8 -16 22q-2 4 -2 9q-2 2 -2 4v2v2v4v4v2q-37 8 -39 47q-5 107 -9 320q-66 -100 -151 -146q-86 -44 -185 -44q-49 0 -102 11q-158 33 -250 140q-66 74 -87 159q-19 79 -19 178v19zM8 725v-18 q0 -86 17 -148q16 -68 65 -125q70 -80 194 -104q42 -9 81 -9q75 0 135 31q94 49 166 211q16 37 28 70q-8 248 -22 426q-2 20 10 37q-84 96 -197 133q-49 19 -103 19q-44 0 -92 -13q-104 -29 -186 -123q-57 -63 -75 -160q-18 -94 -21 -227z" />
<glyph unicode="r" horiz-adv-x="755" d="M80 1049q-4 9 -4 19q0 8 4 18q8 20 29 28q11 5 21 5q15 0 28 -11q20 2 36.5 -9.5t20.5 -29.5q16 -63 23 -139q174 158 401 176q31 2 47 -23q20 -15 22 -37q0 -4 1 -6q1 -18 -11 -32q-14 -16 -34 -19q-262 -29 -402 -282q-6 -10 -16 -17q0 -8 1 -30.5t1 -34.5 q10 -111 24.5 -317t18.5 -255q2 -39 -33 -51q-16 -20 -41 -20q-20 0 -35.5 15t-15.5 36q0 98 -9.5 276t-11.5 246v68q-10 100 -24 186q-4 29 -9.5 83t-11.5 88t-20 69z" />
<glyph unicode="s" horiz-adv-x="1179" d="M-20 346v27q0 44 4 112q6 90 6 117v12v2v2h102v-2v-2v-12v-39v-137q0 -137 43 -262q10 -29 23 -51q28 -28 65 -27q15 0 32 4q58 16 81 74q33 88 47 215q1 23 1 53q0 60 -3 148q-4 87 -4 139q0 34 2 53q18 219 110 369q29 51 54 80q45 55 88 75q60 27 117 27q61 0 118 -31 q88 -47 154 -164q53 -96 83 -213.5t30 -205.5q0 -20 -15.5 -36t-36 -16t-36 15.5t-15.5 36.5q0 23 -2 47q-29 10 -35 41q-27 178 -73 274q-57 114 -142 114q-13 0 -26 -3q-96 -18 -154 -113q-51 -86 -70.5 -190.5t-27.5 -253.5q-12 -231 -15 -252q-2 -14 -2 -29 q-8 -141 -43 -229q-47 -121 -147 -158q-34 -13 -65 -13q-56 0 -103 42q-29 27 -51 65q-4 4 -11 12q-82 104 -83 283z" />
<glyph unicode="t" horiz-adv-x="481" d="M6 1237q0 20 15.5 35.5t35.5 15.5q33 0 74 4l-8 78q-2 23 11 39t34 18h6q12 15 32 17h7q17 0 31 -12q16 -14 18 -35q4 -45 6 -88q68 8 113 10q20 0 36.5 -14.5t16.5 -35t-14 -36.5t-35 -16q-45 -2 -113 -11q1 -33 1 -72q0 -155 -13 -399q-14 -268 -16 -387 q4 -137 12 -250q0 -14 -6 -28q-10 -35 -45 -37h-5q-18 0 -32 12q-16 14 -18 35q-8 123 -9 270q0 98 2 387v111q0 211 -6 342q-43 -4 -80 -4q-20 0 -35.5 15.5t-15.5 35.5z" />
<glyph unicode="u" horiz-adv-x="1089" d="M16 989q-2 6 -2 13q0 12 8 24q12 18 33 23q16 4 33 -2q8 4 16 6q7 2 14 2q13 1 25 -7q19 -12 23 -32q18 -72 29 -283q10 -203 28 -301q41 -119 101 -180q68 -70 166 -70q15 0 30 2q121 12 203 146q68 113 88 270l27 209l8 61l2 17v4v2q0 2 2 4q0 2 2 6q2 8 8 15v40 q47 0 71.5 -11t28 -20t3.5 -24v-39l4 -12q8 -35 16 -92q14 -92 29 -246l30 -422v-6q0 -19 -12 -32q-14 -15 -35 -17q-8 0 -14 2q-10 -6 -20 -6q-20 0 -37 14t-17 35q-4 82 -12 188q-92 -211 -326 -237q-33 -4 -64 -4q-157 0 -253 98q-92 94 -129 279q-4 16 -10 32 q-31 104 -60 303z" />
<glyph unicode="v" horiz-adv-x="901" d="M25 907q-4 10 -4 19q0 15 10 30q12 16 32.5 19.5t38.5 -8.5q55 -41 108.5 -99.5t99.5 -130t79 -131.5l78 -139q45 -82 68 -119q2 -4 8 -18l30 -47q10 68 11 73q6 27 20 101l23 108q6 37 21.5 103.5t28.5 110.5t32.5 99.5t42.5 104.5q10 17 30 25q9 4 18 4q10 0 21 -4 q27 -14 29 -45q5 -9 5 -19q0 -8 -3 -16q-86 -295 -143 -647q-12 -76 -21 -113q-6 -41 -12 -66q-4 -14 -8 -24l-9 -17q-16 -20 -43 -22q-18 0 -32 10l-9 8q-2 2 -5 6.5l-7 10.5q-4 8 -14 24l-39 76l-55 102l-31 48q-25 37 -84 136t-94 152q-113 170 -203 232q-24 17 -24 40 q0 11 6 23z" />
<glyph unicode="w" horiz-adv-x="1122" d="M-62 1084q7 20 25 30q11 4 22 4q15 0 27 -8q8 6 19 6q6 2 13 2q12 0 24 -8q18 -12 22 -33q29 -127 79 -402.5t81 -420.5q8 -29 41 -137l8 -27l14 12l31 60q39 74 74 108q50 46 105 46q15 0 30 -3q31 -6 82 -51q31 -25 76 -72l37 -30l2 4q16 29 36 86q31 86 68 233 q4 45 8 76q6 27 25.5 142.5t37 192.5t40.5 146q8 20 26.5 29.5t38.5 3.5q35 -13 35 -48v-7q11 -13 11 -30q0 -8 -3 -17q-10 -31 -45 -180q-45 -209 -65 -295l-9 -29q-2 -14 -2 -33l-4 -53q-4 -51 -6 -80q-18 -180 -61 -250q-36 -59 -91 -59h-4q-12 0 -24 8l-8 4q-6 4 -13 10 q-10 8 -26 27l-70 72l-4 4l-20 18q-37 31 -62 41q-20 10 -29 4q-12 -6 -49 -45q-78 -88 -82 -90l-4 -4q-8 -18 -16 -31q-16 -29 -31 -45q-27 -29 -57 -31h-5q-26 0 -42 21h-6q-40 0 -74 27q-14 12 -25 41l-10 36q-8 35 -16 95q-8 39 -15.5 94t-9.5 61q-8 57 -32.5 171 t-35.5 171q-6 37 -17 131.5t-24.5 151.5t-39.5 110q-4 11 -4 21t3 19z" />
<glyph unicode="x" horiz-adv-x="964" d="M35 976q2 22 16 34q2 14 10 26q12 16 34 19.5t38 -8.5q59 -45 113.5 -105.5t120 -146.5t88.5 -113l223 483q10 17 30 25q9 4 19 4t21 -4q27 -14 28 -43q4 -13 4 -25q-4 -53 -18 -113.5t-25.5 -95t-38 -106.5t-32.5 -92l-70 -195l276 -303l5 -4q8 -6 12 -14l14 -17 q13 -15 13 -35q0 -23 -16 -37q-15 -14 -36.5 -13t-34.5 16l-28 30q-119 102 -254 240l-150 -397q-7 -20 -27 -28q-10 -4 -21 -5l-19 4q-20 8 -27.5 27.5t0.5 38.5l133 352q-80 -188 -147 -371q-6 -18 -25.5 -27.5t-39 -2t-29 26.5t-0.5 40q88 240 200 502l-348 397 q-12 12 -12 30v6z" />
<glyph unicode="y" horiz-adv-x="821" d="M-8 1307q-2 8 -2 16q0 11 5 23q9 18 30 26q6 2 14 2q10 10 24 12q20 2 38 -10.5t22 -32.5q6 -43 12 -120q4 -68 6 -90q20 -88 37 -146q10 -31 19 -59q6 -10 12 -19q70 -98 170 -123q29 -7 56 -7q10 0 20 1q43 49 90 142q47 94 82 200q33 111 43 181q0 27 -4 49 q-2 20 11 37.5t33 19.5h6q17 0 32 -11q18 -14 20 -34q2 -16 4 -37q3 -7 3 -14q0 -4 -1 -8q0 -4 -2 -7q1 -30 1 -60q0 -179 -52 -323q-49 -127 -131 -188q-39 -29 -86 -41l-10 -10q-12 -10 -25 -19q0 -27 2 -55q14 -129 21 -358q6 -86 16 -203q2 -20 -12.5 -36.5t-35.5 -18.5 h-5q-17 0 -31 12q-16 14 -18 35v4q-10 12 -11 29q-2 31 -3 93t-3 83q-14 195 -20 352q-2 14 -2 27h-8q-41 0 -83 18q-104 51 -172 246q-47 80 -61 209q-2 10 -2 20l-10 41q-27 115 -39 152z" />
<glyph unicode="z" horiz-adv-x="712" d="M53 1110q0 29 23 45v12q0 20 16.5 35t36.5 15h6q41 0 238 20q98 10 141 14q31 2 49 2h19q8 -2 12 -2q18 -4 29 -18q16 -20 16 -53q-2 -18 -6 -43q-10 -39 -30.5 -100.5t-59.5 -162.5q-43 -113 -94 -272q-63 -231 -87 -301q-2 -4 -10 -25.5t-20.5 -57.5t-22.5 -62l-22 -66 q33 2 84 6q8 0 118 8q61 6 80 7q31 0 45 -27h7q19 -2 33 -18q12 -14 12 -33v-5q-2 -22 -18 -35q-14 -11 -34 -11h-6q-11 1 -63.5 1t-147.5 -1q-41 -1 -72 -1t-51 1q-27 0 -43 2q-12 2 -20 4q-4 0 -8 2h-2q-20 4 -33 16q-14 14 -14 35v12q0 4 2 10q2 8 8 23q6 20 18 55 q8 16 15.5 37t12.5 33t5 16q35 90 115 340l20 64l43 164q55 207 70 276q8 39 12 66l-102 -27q-193 -47 -267 -49q-23 0 -38 14.5t-15 34.5z" />
<glyph unicode="{" horiz-adv-x="698" d="M35 436v49q4 37 18 56q20 31 64 41q10 2 55 8q20 2 29 4q-2 6 -4 14q-6 18 -23 64q-39 106 -41 143q-4 94 29 203q33 106 92 203q66 102 152 172q86 68 188 77q23 2 39 -11t18 -34.5t-11.5 -38t-33.5 -18.5q-150 -14 -266 -201q-51 -84 -79 -178t-25 -170q0 -18 34 -110 q18 -49 25 -70q4 -18 6 -31q4 -23 0 -39q-20 -72 -119 -82q-39 -4 -43 -6h-2v-4v-37q2 -31 6 -67q2 -12 5.5 -55.5t7.5 -67.5q10 -68 28 -94q59 -84 141.5 -143.5t159.5 -63.5q20 -2 35 -17.5t12.5 -37t-17.5 -36t-38 -12.5q-106 6 -206.5 80t-168.5 168q-35 49 -49 139 q-2 27 -6 71t-6 56q-4 41 -6 76z" />
<glyph unicode="|" horiz-adv-x="354" d="M139 1411q-6 20 3.5 38.5t30 26t39 -2t26.5 -29.5q49 -141 41 -377q-2 -29 -11 -188q-6 -117 -4 -174q2 -92 22.5 -299t20.5 -306q0 -20 -15.5 -35.5t-35.5 -15.5t-35.5 15.5t-15.5 35.5q0 104 -19 295q-23 236 -24 305q-2 72 4 185q8 164 10 186q6 215 -37 340z" />
<glyph unicode="}" horiz-adv-x="583" d="M-72 1444.5q0 21.5 15.5 36t38.5 14.5q84 -2 136 -9t119.5 -39t120.5 -89q57 -66 80 -138.5t18 -127t-24 -119.5q-6 -25 -24 -80q-16 -45 -23 -70q-18 -66 -4 -104q6 -18 43 -33l8 -2q8 -4 11 -5t11.5 -4t12.5 -7l14 -9q8 -4 13.5 -9t11.5 -12t11 -15.5t9 -16.5 q10 -25 4 -55q-2 -16 -10 -39q-2 -4 -12 -31l-4 -12q-12 -66 4 -135l12 -51q12 -49 15 -72q10 -80 -33 -152q-47 -76 -168 -165q-16 -12 -38 -9.5t-34 19t-9 38t19 33.5q106 78 142 138q25 41 20 86q-2 20 -12 58t-14 54q-20 90 -7 174q2 12 11 33q10 25 12 29q4 14 6 22 q-4 8 -43 21q-82 31 -104 96q-23 68 4 164q6 27 22 78q18 51 25 73q16 53 19 95.5t-13 93.5t-59 98q-55 63 -121 83t-183 22q-20 0 -34.5 15t-14.5 36.5z" />
<glyph unicode="~" horiz-adv-x="1118" d="M67 468q1 22 15 34l70 63q25 20 78 51t100 41q94 16 211 -53q37 -20 92 -61q63 -45 84 -58q84 -53 135 -47q63 8 123 115q10 18 30.5 24.5t39 -4t24.5 -31t-4 -38.5q-86 -152 -201 -166q-86 -12 -202 61l-89 60q-53 39 -84 57q-86 49 -143 39q-31 -4 -67.5 -26.5 t-61.5 -43.5l-65 -57q-16 -14 -38 -13t-35 16t-12 37z" />
<glyph unicode="&#xad;" d="M104 553q-2 27 19 43q-4 12 0 25q6 20 24.5 30t38.5 4q72 -20 236 -18h45q10 -2 16 -4q27 -8 33 -39q2 -16 -3 -29.5t-13 -17.5l-8 -6q-6 -4 -17 -6q-4 -2 -8 -3q-23 -4 -98 -10l-209 -16q-23 -2 -38.5 12t-17.5 35z" />
<glyph unicode="&#x2000;" horiz-adv-x="789" />
<glyph unicode="&#x2001;" horiz-adv-x="1578" />
<glyph unicode="&#x2002;" horiz-adv-x="789" />
<glyph unicode="&#x2003;" horiz-adv-x="1578" />
<glyph unicode="&#x2004;" horiz-adv-x="526" />
<glyph unicode="&#x2005;" horiz-adv-x="394" />
<glyph unicode="&#x2006;" horiz-adv-x="263" />
<glyph unicode="&#x2007;" horiz-adv-x="263" />
<glyph unicode="&#x2008;" horiz-adv-x="197" />
<glyph unicode="&#x2009;" horiz-adv-x="315" />
<glyph unicode="&#x200a;" horiz-adv-x="87" />
<glyph unicode="&#x2010;" d="M104 553q-2 27 19 43q-4 12 0 25q6 20 24.5 30t38.5 4q72 -20 236 -18h45q10 -2 16 -4q27 -8 33 -39q2 -16 -3 -29.5t-13 -17.5l-8 -6q-6 -4 -17 -6q-4 -2 -8 -3q-23 -4 -98 -10l-209 -16q-23 -2 -38.5 12t-17.5 35z" />
<glyph unicode="&#x2011;" d="M104 553q-2 27 19 43q-4 12 0 25q6 20 24.5 30t38.5 4q72 -20 236 -18h45q10 -2 16 -4q27 -8 33 -39q2 -16 -3 -29.5t-13 -17.5l-8 -6q-6 -4 -17 -6q-4 -2 -8 -3q-23 -4 -98 -10l-209 -16q-23 -2 -38.5 12t-17.5 35z" />
<glyph unicode="&#x2012;" d="M104 553q-2 27 19 43q-4 12 0 25q6 20 24.5 30t38.5 4q72 -20 236 -18h45q10 -2 16 -4q27 -8 33 -39q2 -16 -3 -29.5t-13 -17.5l-8 -6q-6 -4 -17 -6q-4 -2 -8 -3q-23 -4 -98 -10l-209 -16q-23 -2 -38.5 12t-17.5 35z" />
<glyph unicode="&#x2013;" horiz-adv-x="1173" d="M103 553q-5 27 48 43q-10 12 0 25q14 20 60 30t96 4q178 -20 585 -18h112q25 -2 40 -4q67 -8 82 -39q5 -16 -7.5 -29.5t-32.5 -17.5l-20 -6q-15 -4 -42 -6q-10 -2 -20 -3q-57 -4 -243 -10l-519 -16q-57 -2 -95.5 12t-43.5 35z" />
<glyph unicode="&#x2014;" horiz-adv-x="2197" d="M104 553q-10 27 94 43q-20 12 0 25q30 20 122 30t191 4q357 -20 1171 -18h223q50 -2 79 -4q134 -8 164 -39q10 -16 -15 -29.5t-64 -17.5l-40 -6q-30 -4 -84 -6q-20 -2 -40 -3q-114 -4 -486 -10l-1037 -16q-114 -2 -191 12t-87 35z" />
<glyph unicode="&#x2018;" horiz-adv-x="425" d="M146.5 972q-3.5 87 5 155.5t28.5 152.5q4 20 22.5 31.5t39 6.5t32 -24t5.5 -39q-27 -109 -33 -190.5t19.5 -164.5t90.5 -132q18 -12 21.5 -32.5t-9 -38t-33 -20.5t-36.5 9q-74 51 -111.5 125t-41 161z" />
<glyph unicode="&#x2019;" horiz-adv-x="423" d="M131 785.5q0 21.5 16 35.5q111 106 126.5 251t-68.5 276q-12 16 -7 37.5t22.5 33t39 6t31.5 -23.5q102 -160 82.5 -340t-156.5 -313q-14 -14 -35.5 -14.5t-36 15t-14.5 37z" />
<glyph unicode="&#x201c;" horiz-adv-x="651" d="M235.5 1082q2.5 85 12.5 180q4 20 20.5 33.5t37 10.5t33.5 -20t11 -37q-10 -92 -11 -165.5t22.5 -143.5t76.5 -127q14 -16 12.5 -37.5t-17 -36t-37 -12.5t-36.5 16q-66 76 -96.5 165t-28 174zM395 1249q2 23 18.5 36t38 11t35 -18.5t11.5 -36.5q-25 -260 92 -389 q14 -16 13 -37.5t-16.5 -35t-37 -12.5t-33.5 15q-147 162 -121 467z" />
<glyph unicode="&#x201d;" horiz-adv-x="659" d="M241 666.5q3 21.5 21 33.5q109 76 109 244q-2 135 -70 309q-8 18 0 38t27.5 28t39 -0.5t27.5 -28.5q76 -190 78 -346q2 -223 -154 -330q-16 -10 -37.5 -7t-32.5 20.5t-8 39zM449 1282q6 21 24.5 31t39 3.5t30.5 -24.5q33 -55 49 -114.5t18 -130t0 -112.5t-10 -122 q-2 -23 -18.5 -36t-38 -11t-34.5 18.5t-11 36.5q18 113 11 224.5t-56 197.5q-10 18 -4 39z" />
<glyph unicode="&#x202f;" horiz-adv-x="315" />
<glyph unicode="&#x205f;" horiz-adv-x="394" />
<glyph unicode="&#xe000;" horiz-adv-x="1198" d="M0 0v1198h1198v-1198h-1198z" />
</font>
</defs>
</svg>
